<svg xmlns="http://www.w3.org/2000/svg" viewBox="0 0 512 512"><path d="M251.23 448H70.775a150.443 150.443 0 0 0 32.265-93.54V64h278.395v153.172a8 8 0 0 0 16 0V56a7.998 7.998 0 0 0-8-8H95.039a7.998 7.998 0 0 0-8 8v298.46a134.713 134.713 0 0 1-39.71 95.884A8 8 0 0 0 52.983 464h198.247a8 8 0 0 0 0-16Z"/><path d="M333.996 148.766h-183.52a8 8 0 0 0 0 16h183.52a8 8 0 0 0 0-16ZM341.996 210.969a7.998 7.998 0 0 0-8-8h-183.52a8 8 0 1 0 0 16h183.52a7.998 7.998 0 0 0 8-8ZM262.23 265.172a7.998 7.998 0 0 0-8-8H150.478a8 8 0 0 0 0 16H254.23a7.998 7.998 0 0 0 8-8ZM150.477 311.375a8 8 0 1 0 0 16h65.253a8 8 0 0 0 0-16ZM436.727 287.46a103.32 103.32 0 0 0-174.936 55.413l-6.357-6.357a8 8 0 0 0-11.313 11.312l18.409 18.408a8.026 8.026 0 0 0 11.323 0l18.413-18.408a8 8 0 0 0-11.313-11.312l-1.817 1.816a87.338 87.338 0 1 1 22.657 84.066 8 8 0 0 0-11.312 11.313 103.413 103.413 0 0 0 146.246-146.25Z"/><path d="M363.606 291.32a7.998 7.998 0 0 0-8 8v61.266a8.115 8.115 0 0 0 2.35 5.664l28.993 28.992a8 8 0 0 0 11.313-11.312l-26.656-26.656V299.32a7.998 7.998 0 0 0-8-8Z"/></svg>